<svg xmlns="http://www.w3.org/2000/svg" xmlns:xlink="http://www.w3.org/1999/xlink" viewBox="0 0 750 500"><defs><clipPath id="freepik--clip-path--inject-238"><path d="M409.45,256.42a34.65,34.65,0,1,0-69.29,0v69.29a34.65,34.65,0,0,0,69.29,0Z" style="fill:#0F172A;stroke:#263238;stroke-miterlimit:10;stroke-width:0.9696422508675577px"></path></clipPath><clipPath id="freepik--clip-path-2--inject-238"><path d="M615.36,393.44s-.13,20.53-2.3,23.91c-2.59,4-4.43,9.59,2.43,11.11s10.94,9.09,19.11,9.59,9-3,5.44-5.81-12.6-10.6-13.79-14.39,1.12-24.41,1.12-24.41Z" style="fill:#fff;stroke:#263238;stroke-linecap:round;stroke-linejoin:round;stroke-width:0.9325674165897908px"></path></clipPath><clipPath id="freepik--clip-path-3--inject-238"><path d="M569.23,386s-9,18.78-12.4,21.07c-4.11,2.74-8.19,7.15-2.56,11.08s6.13,12.39,13.4,15.88,9.54.54,7.49-3.31-7-14.39-6.45-18.31S580.33,390,580.33,390Z" style="fill:#fff;stroke:#263238;stroke-linecap:round;stroke-linejoin:round;stroke-width:0.9325674165897908px"></path></clipPath><clipPath id="freepik--clip-path-4--inject-238"><path d="M636.62,212.89l-14,13,.26-19.48A17.45,17.45,0,0,0,615,191.54l.53,51.27c13.75.87,26-26.11,26-26.11A7.51,7.51,0,0,0,636.62,212.89Z" style="fill:#fff;stroke:#263238;stroke-linecap:round;stroke-linejoin:round;stroke-width:0.9325674165897908px"></path></clipPath><clipPath id="freepik--clip-path-5--inject-238"><path d="M191.8,257.64s-1.79-11.77-5.72-28.72-11.61-18.28-11.61-18.28l-.07,0c-10-4.3-36-6.62-36-6.62h-1.2s-26.06,2.32-36,6.62l-.07,0S93.38,212,89.45,228.92s-5.73,28.72-5.73,28.72-7.1,1.92-19.88,18a42.49,42.49,0,0,0-5.09,8.26h0s9.82-3.23,16.7,1.72c0,0,22.54-9.56,23.67-19.64,0-.36.09-.76.14-1.19.64,15.3,1.19,28.08,1.19,28.08h74.62s.56-12.78,1.2-28.08c0,.43.09.83.13,1.19,1.14,10.08,26.09,21.38,26.09,21.38,6.84-10.52,16.77-4.71,16.77-4.71Z" style="fill:#fff;stroke:#263238;stroke-linecap:round;stroke-linejoin:round;stroke-width:0.8738100494572422px"></path></clipPath><clipPath id="freepik--clip-path-6--inject-238"><path d="M151.77,205.64c-1.21,6.06-7.07,8.25-14.13,8.25s-12.9-2.18-14.13-8.22l.28,0a3.65,3.65,0,0,0,3.06-2.78A2.79,2.79,0,0,0,127,202v-7.11h21.6V202a3.53,3.53,0,0,0,.24,1.3h0a3.67,3.67,0,0,0,2.93,2.34Z" style="fill:#fff;stroke:#263238;stroke-linecap:round;stroke-linejoin:round;stroke-width:0.8738100494572422px"></path></clipPath></defs><g id="freepik--background-simple--inject-238"><path d="M463.5,150.23c-21-17.55-49.81-41.75-74.58-62.71a126.7,126.7,0,0,0-89.39-30c-36.19,2.22-81.28,14.87-113.19,57.71-61.89,83.07-34.25,277.45,85,314.13S498,438.1,561.51,377.26,617.24,200.89,586.94,187c-15.7-7.23-40.45-10.29-60.67-11.57A108.57,108.57,0,0,1,463.5,150.23Z" style="fill:#0F172A"></path><path d="M463.5,149.23c-21-17.55-49.81-41.75-74.58-62.71a126.7,126.7,0,0,0-89.39-30c-36.19,2.22-81.28,14.87-113.19,57.71-61.89,83.07-34.25,277.45,85,314.13S498,437.1,561.51,376.26,617.24,199.89,586.94,186c-15.7-7.23-40.45-10.29-60.67-11.57A108.57,108.57,0,0,1,463.5,149.23Z" style="fill:#fff;opacity:0.7000000000000001"></path></g><g id="freepik--Podcast--inject-238"><path d="M402,216.08a48.66,48.66,0,0,0-69,65.17" style="fill:none;stroke:#263238;stroke-linecap:round;stroke-linejoin:round;stroke-width:0.9696422508675577px"></path><path d="M419.3,236.72a49.83,49.83,0,0,0-3.28-6.17" style="fill:none;stroke:#263238;stroke-linecap:round;stroke-linejoin:round;stroke-width:0.9696422508675577px"></path><path d="M415.15,283.62a48.82,48.82,0,0,0,7.28-37.16" style="fill:none;stroke:#263238;stroke-linecap:round;stroke-linejoin:round;stroke-width:0.9696422508675577px"></path><path d="M326.51,208.12A69.67,69.67,0,0,0,317.66,219" style="fill:none;stroke:#263238;stroke-linecap:round;stroke-linejoin:round;stroke-width:0.9696422508675577px"></path><path d="M428.82,298.23a68.31,68.31,0,0,0-89.92-99.92" style="fill:none;stroke:#263238;stroke-linecap:round;stroke-linejoin:round;stroke-width:0.9696422508675577px"></path><path d="M320.68,298.23a68.48,68.48,0,0,1-11.12-62.46" style="fill:none;stroke:#263238;stroke-linecap:round;stroke-linejoin:round;stroke-width:0.9696422508675577px"></path><path d="M299.27,315.5a96.19,96.19,0,0,0,14.38,14.78" style="fill:none;stroke:#263238;stroke-linecap:round;stroke-linejoin:round;stroke-width:0.9696422508675577px"></path><path d="M429.06,177.33A95.93,95.93,0,0,0,286.57,294" style="fill:none;stroke:#263238;stroke-linecap:round;stroke-linejoin:round;stroke-width:0.9696422508675577px"></path><path d="M464.26,221.78a95.8,95.8,0,0,0-9.87-18.89" style="fill:none;stroke:#263238;stroke-linecap:round;stroke-linejoin:round;stroke-width:0.9696422508675577px"></path><path d="M441.1,325.71a95.6,95.6,0,0,0,29.61-69.29" style="fill:none;stroke:#263238;stroke-linecap:round;stroke-linejoin:round;stroke-width:0.9696422508675577px"></path><path d="M240.8,256.42A134.68,134.68,0,0,0,353,389.21" style="fill:none;stroke:#263238;stroke-linecap:round;stroke-linejoin:round;stroke-width:0.9696422508675577px"></path><path d="M483,336.55A134.71,134.71,0,0,0,343.63,125.4" style="fill:none;stroke:#263238;stroke-linecap:round;stroke-linejoin:round;stroke-width:0.9696422508675577px"></path><path d="M240.8,256.42A134.7,134.7,0,0,1,343.67,125.54" style="fill:none;stroke:#263238;stroke-linecap:round;stroke-linejoin:round;stroke-width:0.9696422508675577px"></path><path d="M454.39,365q5.13-3.77,9.87-8" style="fill:none;stroke:#263238;stroke-linecap:round;stroke-linejoin:round;stroke-width:0.9696422508675577px"></path><path d="M397.21,389.21a133.73,133.73,0,0,0,43.59-15.4" style="fill:none;stroke:#263238;stroke-linecap:round;stroke-linejoin:round;stroke-width:0.9696422508675577px"></path><path d="M374.81,377.15a51.5,51.5,0,0,1-51.44-51.44V308.39a2.8,2.8,0,0,1,2.8-2.8h7a2.8,2.8,0,0,1,0,5.6H329v14.52a45.84,45.84,0,1,0,91.68,0V311.19h-4.2a2.8,2.8,0,1,1,0-5.6h7a2.8,2.8,0,0,1,2.8,2.8v17.32A51.5,51.5,0,0,1,374.81,377.15Z" style="fill:#263238"></path><path d="M429.05,420.19v-5.6a5.59,5.59,0,0,0-5.6-5.6H326.17a5.59,5.59,0,0,0-5.6,5.6v5.6Z" style="fill:#263238"></path><path d="M380.27,415.81a5.43,5.43,0,0,0,.14-1.22V374.35h-11.2v40.24a5.43,5.43,0,0,0,.14,1.22Z" style="fill:#263238"></path><path d="M409.45,256.42a34.65,34.65,0,1,0-69.29,0v69.29a34.65,34.65,0,0,0,69.29,0Z" style="fill:none;stroke:#263238;stroke-linecap:round;stroke-linejoin:round;stroke-width:0.9696422508675577px"></path><path d="M409.45,256.42a34.65,34.65,0,1,0-69.29,0v69.29a34.65,34.65,0,0,0,69.29,0Z" style="fill:#0F172A"></path><g style="clip-path:url(#freepik--clip-path--inject-238)"><path d="M360.46,260.07h-20.3v8.4h20.3a4.2,4.2,0,1,0,0-8.4Z" style="fill:#fff"></path><path d="M409.45,260.07H389.16a4.2,4.2,0,1,0,0,8.4h20.29Z" style="fill:#fff"></path><path d="M374.81,260.07a4.2,4.2,0,1,0,4.2,4.2A4.2,4.2,0,0,0,374.81,260.07Z" style="fill:#fff"></path><path d="M374.81,277.05a4.2,4.2,0,1,0,4.2,4.2A4.2,4.2,0,0,0,374.81,277.05Z" style="fill:#fff"></path><path d="M374.81,294a4.2,4.2,0,1,0,4.2,4.2A4.2,4.2,0,0,0,374.81,294Z" style="fill:#fff"></path><path d="M360.46,277.05h-20.3v8.4h20.3a4.2,4.2,0,1,0,0-8.4Z" style="fill:#fff"></path><path d="M409.45,277.05H389.16a4.2,4.2,0,0,0,0,8.4h20.29Z" style="fill:#fff"></path><path d="M360.46,294h-20.3v8.4h20.3a4.2,4.2,0,0,0,0-8.4Z" style="fill:#fff"></path><path d="M409.45,294H389.16a4.2,4.2,0,0,0,0,8.4h20.29Z" style="fill:#fff"></path></g><path d="M409.45,256.42a34.65,34.65,0,1,0-69.29,0v69.29a34.65,34.65,0,0,0,69.29,0Z" style="fill:none;stroke:#263238;stroke-miterlimit:10;stroke-width:0.9696422508675577px"></path><path d="M340.16,325.71a34.65,34.65,0,0,0,69.29,0Z" style="fill:#263238;stroke:#263238;stroke-miterlimit:10;stroke-width:0.9696422508675577px"></path></g><g id="freepik--Graphics--inject-238"><path d="M416.25,158.67V116a7.78,7.78,0,0,0-7.78-7.78H341.53a7.78,7.78,0,0,0-7.78,7.78v42.67a7.78,7.78,0,0,0,7.78,7.78h23.31L363,182.69H375V198l14.24-25H377.56l1.23-6.56h29.68A7.78,7.78,0,0,0,416.25,158.67Z" style="fill:#fff;stroke:#263238;stroke-linecap:round;stroke-linejoin:round;stroke-width:1.0254712104797363px"></path><line x1="346.53" y1="122.82" x2="391.79" y2="122.82" style="fill:none;stroke:#263238;stroke-linecap:round;stroke-linejoin:round;stroke-width:1.0254712104797363px"></line><line x1="346.53" y1="134.91" x2="403.47" y2="134.91" style="fill:none;stroke:#263238;stroke-linecap:round;stroke-linejoin:round;stroke-width:1.0254712104797363px"></line><line x1="346.53" y1="147" x2="394.71" y2="147" style="fill:none;stroke:#263238;stroke-linecap:round;stroke-linejoin:round;stroke-width:1.0254712104797363px"></line><polygon points="467.38 341.38 507.82 354.86 497.79 364.9 516.51 383.62 476.07 370.14 486.1 360.1 467.38 341.38" style="fill:#0F172A;stroke:#263238;stroke-linecap:round;stroke-linejoin:round;stroke-width:1.0254712104797363px"></polygon><polygon points="282.62 341.38 242.18 354.86 252.21 364.9 233.49 383.62 273.93 370.14 263.9 360.1 282.62 341.38" style="fill:#0F172A;stroke:#263238;stroke-linecap:round;stroke-linejoin:round;stroke-width:1.0254712104797363px"></polygon><polygon points="373.87 32.14 354.8 70.28 369 70.28 369 96.76 388.06 58.62 373.87 58.62 373.87 32.14" style="fill:#0F172A;stroke:#263238;stroke-linecap:round;stroke-linejoin:round;stroke-width:1.0254712104797363px"></polygon></g></svg>