<svg xmlns="http://www.w3.org/2000/svg" viewBox="0 0 500 500"><g id="freepik--Background--inject-115"><g id="freepik--background--inject-115"><path d="M429.6,198.46c-11.57,11-14.48,21-16.48,36.94-1.89,15.09,4.55,34.33,11.59,43.41s12.24,6.87,13.8-1.72c.78-4.24-3.9-19.25-.4-33.06,2.36-9.29,8.34-20.63,11-28.87,3-9.33.09-17.61-4.29-20.36C442.09,193.11,434.33,194,429.6,198.46Z" style="fill:#455a64"></path><path d="M121.75,150.5c-8.2,8.73-13.93,17.75-20.33,29.48-4.09,7.5-6.73,17.35-12.86,24-8.75,9.48-21.4-.21-23.94-14.61-5.27-29.79,6.84-49.74,18.83-62.59,14.15-15.17,42.11-24.08,67.25-25.23,28-1.27,30,10.43,12.13,19.08C147.77,127.91,132.19,139.38,121.75,150.5Z" style="fill:#455a64"></path><path d="M150.14,422.9c-13.89-6.88-24-13.74-31.87-25.82-6.91-10.55-10.25-14.93-16.12-14-12.09,1.85-18.43,25.86-10.58,43.19,10.07,22.23,38,31.53,67.27,31.8,33,.3,44.83-9.37,46-13.33,1.8-6-3.91-9.86-15.81-11.44C176.88,431.65,157.94,426.77,150.14,422.9Z" style="fill:#455a64"></path><path d="M415.88,197.37C435.55,152,459.44,83.27,379.82,75.66l-1.89-.15c-92.38-7.37-171.48,29.7-213.65,60.3-42.46,30.8-62.37,62.77-73.3,121.27S106.34,390,168.1,414.23s151.79,18,198.62-23.75c45-40.13,53.83-93.34,38-132.69C401.28,243.54,401.47,230.66,415.88,197.37Z" style="fill:#455a64"></path></g></g><g id="freepik--Character--inject-115"><g id="freepik--Face--inject-115"><path id="freepik--Skin--inject-115" d="M379.82,75.66c5.11,20.37,14.06,73.59-5.14,88.73,0,0,6.79,5.77,6.79,23.64,0,0,2.76,4.81,2.1,18.63-.5,10.37-.34,17.27,9.53,30.45,29.52,39.41,27.1,105.65-26.38,153.37-46.83,41.78-136.85,48-198.62,23.75S80,315.58,91,257.08s30.84-90.47,73.3-121.27S286.63,67.63,379.82,75.66Z" style="fill:#ffa8a7"></path><path id="freepik--Shadow--inject-115" d="M393.1,237.11c-9.87-13.18-10-20.08-9.53-30.45.66-13.82-2.1-18.63-2.1-18.63,0-17.87-6.79-23.64-6.79-23.64,10-7.92,12.38-26.24,11.6-44.84-18.39-3-46.7,13.49-63.81,58-19.66,51.09-9.83,90.83,4.92,111.75,10.26,15.29,22.81,23.47,35.13,35.44s4.2,23.12.89,26.84-16.36,16.15-17,22.88c-3.59,10.81,1.12,21,9.76,24.36a114.4,114.4,0,0,0,10.51-8.29C420.2,342.76,422.62,276.52,393.1,237.11Z" style="opacity:0.05"></path><path id="freepik--shadow--inject-115" d="M242.1,194.88c12.7,6,27.8,28.92,32.71,63,4.47,30.91-1.5,55.9-11.33,55.9S234,240.6,199.56,251.63s-59,53.6-68.83,42.25S112,249,138.56,224.6,210.9,183.86,242.1,194.88Z" style="opacity:0.05"></path><g id="freepik--Freckles--inject-115"><circle cx="140.57" cy="359.51" r="2.96" style="fill:#f28f8f"></circle><path d="M170.93,376.5a3,3,0,1,1-3.73-1.92A3,3,0,0,1,170.93,376.5Z" style="fill:#f28f8f"></path><path d="M199.42,358.14a3,3,0,1,1-3.72-1.92A3,3,0,0,1,199.42,358.14Z" style="fill:#f28f8f"></path><path d="M381,261a3,3,0,1,1-3.73-1.92A3,3,0,0,1,381,261Z" style="fill:#f28f8f"></path><path d="M397,274.76a3,3,0,1,1-3.72-1.92A3,3,0,0,1,397,274.76Z" style="fill:#f28f8f"></path><path d="M354,274.59a3,3,0,1,1-3.72-1.92A3,3,0,0,1,354,274.59Z" style="fill:#f28f8f"></path><path d="M310.55,287.3a3,3,0,1,1-3.73-1.92A3,3,0,0,1,310.55,287.3Z" style="fill:#f28f8f"></path><path d="M191.14,402.21a3,3,0,1,1-3.73-1.93A3,3,0,0,1,191.14,402.21Z" style="fill:#f28f8f"></path><path d="M132.69,336a3,3,0,1,1-3.73-1.92A3,3,0,0,1,132.69,336Z" style="fill:#f28f8f"></path><path d="M130.52,370.72a3,3,0,1,1-3.73-1.93A3,3,0,0,1,130.52,370.72Z" style="fill:#f28f8f"></path><path d="M234,343.77a2.1,2.1,0,1,1-2.64-1.36A2.1,2.1,0,0,1,234,343.77Z" style="fill:#f28f8f"></path><path d="M393.31,245a2.11,2.11,0,1,1-2.65-1.36A2.11,2.11,0,0,1,393.31,245Z" style="fill:#f28f8f"></path><path d="M332.3,272.21a2.1,2.1,0,1,1-2.64-1.36A2.1,2.1,0,0,1,332.3,272.21Z" style="fill:#f28f8f"></path><path d="M356.17,294.81a2.1,2.1,0,0,1-4,1.28,2.1,2.1,0,1,1,4-1.28Z" style="fill:#f28f8f"></path><path d="M405.24,290.4A2.1,2.1,0,1,1,402.6,289,2.09,2.09,0,0,1,405.24,290.4Z" style="fill:#f28f8f"></path><path d="M262.53,373.85a2.1,2.1,0,1,1-2.64-1.36A2.09,2.09,0,0,1,262.53,373.85Z" style="fill:#f28f8f"></path><path d="M302.81,319.43a2.1,2.1,0,1,1-2.65-1.37A2.1,2.1,0,0,1,302.81,319.43Z" style="fill:#f28f8f"></path><path d="M317.1,304.59a2.1,2.1,0,1,1-2.64-1.36A2.1,2.1,0,0,1,317.1,304.59Z" style="fill:#f28f8f"></path><path d="M290.06,276.21a2.1,2.1,0,1,1-2.64-1.37A2.1,2.1,0,0,1,290.06,276.21Z" style="fill:#f28f8f"></path><path d="M314.64,268a2.09,2.09,0,0,1-1.36,2.64,2.1,2.1,0,1,1,1.36-2.64Z" style="fill:#f28f8f"></path><path d="M295.89,247.82a2.1,2.1,0,1,1-2.64-1.36A2.1,2.1,0,0,1,295.89,247.82Z" style="fill:#f28f8f"></path><path d="M112.48,341.88a2.1,2.1,0,1,1-4,1.28,2.1,2.1,0,0,1,4-1.28Z" style="fill:#f28f8f"></path><path d="M223.23,384.24a2.11,2.11,0,1,1-2.64-1.36A2.1,2.1,0,0,1,223.23,384.24Z" style="fill:#f28f8f"></path><path d="M380.21,290.74a2.1,2.1,0,1,1-2.65-1.36A2.12,2.12,0,0,1,380.21,290.74Z" style="fill:#f28f8f"></path></g><g id="freepik--Eye--inject-115"><path d="M377.46,168.27a14,14,0,0,0-2.78-3.88c10.16-8,12.44-26.69,11.57-45.52-.54,0-1.1,0-1.69.08-14.06,1.13-24.94,14.4-24.94,14.4,18.29-9,22.62,3.08,16.93,12.93-4.91,8.51-24.5,13.35-33.64,22.71,0,0,18.43-11.63,30.95-3C375.12,166.88,376.31,167.62,377.46,168.27Z" style="fill:#f28f8f"></path><path d="M381,184.84l.4-.48c-.43-7.73-2.23-12.78-3.84-15.88-4.22-3.26-9.68-5.94-15.77-5.17-13.91,1.76-34.29,11.6-39.33,42.11-2.85,17.31-.45,26-.82,45.41Z" style="fill:#0F172A"></path><path d="M381.41,184.36c-.43-7.73-2.23-12.78-3.84-15.88-3.68-2.84-8.31-5.25-13.48-5.3-11.61,2.22-21.51,10-21.51,10,11.24-6.66,21.88-4.74,19.94-2.41s-23.81,1-32.18,35.42c0,0,16.35-28.77,34.07-26.77a28.69,28.69,0,0,1,15.51,6.6l1.09-1.22Z" style="opacity:0.2"></path><path d="M381,191.69c.57,6.73,1.65,14.95-2.29,26.83S360.74,247.09,346.06,251c0,0-5.06.91-8.84,1.56s-4.92,1.21-6.74,2.76-6.36,3.86-8,1.36,1.34-6.72,2-9.8,1-12.9,3.5-23.58S334.36,195,346.06,186s25.31-9,30.49-3.18C379.69,186.34,381,191.69,381,191.69Z" style="fill:#f0f0f0"></path><path d="M378.69,218.52c3.94-11.88,2.86-20.1,2.29-26.83,0,0-1.29-5.35-4.43-8.85-5.18-5.79-18.79-5.84-30.49,3.18a27.79,27.79,0,0,0-2.57,2.27l2.33,4.12,7.46,2.47c9.24-6,19.52-5.35,22.82,0,4.17,6.7,3.16,22.23,1,27.54A35.75,35.75,0,0,0,378.69,218.52Z" style="fill:#e0e0e0"></path><path d="M329.24,229.09c-1.23,5.58-1.06,14.15,5.12,17.72,6.39,3.69,13.47,3.91,21.05.14a21.31,21.31,0,0,1-8.58,3.86c-5.66,1.34-11.08,1.06-14.53,2.91s-5.56,4.52-8.78,3.26-1.11-5.52,0-8.33S326.63,234.66,329.24,229.09Z" style="fill:#e0e0e0"></path><path d="M324.39,242.15c.65,5,1.69,10.71,9.05,11,0,0-5.07,4-8,4.55s-5-.83-3-5.86A27.47,27.47,0,0,0,324.39,242.15Z" style="fill:#f28f8f"></path><path d="M368.11,235.88c8.44-10,12.25-21.48,13.36-38.84C382.17,208.08,381.59,223.74,368.11,235.88Z" style="fill:#263238"></path><path d="M380.16,175.84c-3.23-9.33-19.75-15.08-38.45-.92-12,9.09-18.25,26.67-22.58,49.93,1.67-26.85,6-41.4,22.31-54.71s32.22-7,32.22-7a32.21,32.21,0,0,0,11-17.86s-1,11.86-7.9,19.94A12.4,12.4,0,0,1,380.16,175.84Z" style="fill:#263238"></path><path d="M366,218.24c-1.13,13.68-12.16,23.94-24.63,22.91A21.68,21.68,0,0,1,326,232.57c2.9-17.27,9.18-31.14,19.47-41C358,192.62,367.14,204.55,366,218.24Z" style="fill:#0F172A"></path><path d="M353.28,194.88c-6,5.58-22,23.41-24.64,39.39l-1.25-4s.36-8.62,4.91-20.29a43.52,43.52,0,0,1,12.34-17.62A18.62,18.62,0,0,1,353.28,194.88Z" style="opacity:0.2"></path><path d="M346.36,194.12a19.23,19.23,0,0,1,12.57,7.52A23.56,23.56,0,0,1,363.6,218c-1,11.64-10,20.76-20.49,20.76q-.76,0-1.53-.06a19,19,0,0,1-13-6.84c2.86-16.15,8.83-28.85,17.77-37.78m-.88-2.53c-10.29,9.84-16.57,23.71-19.47,41a21.68,21.68,0,0,0,15.37,8.58c.58,0,1.16.07,1.73.07,11.74,0,21.82-9.93,22.9-23,1.13-13.69-8.06-25.62-20.53-26.65Z" style="fill:#263238"></path><ellipse cx="343.43" cy="216.37" rx="12.58" ry="11.46" transform="translate(99.46 540.77) rotate(-85.27)" style="fill:#263238"></ellipse><path d="M341.36,214.74a4.15,4.15,0,1,1-3.79-4.58A4.21,4.21,0,0,1,341.36,214.74Z" style="fill:#fafafa"></path><path d="M328,236.68c-1.27-.93-1.18-3.26.2-5.2s3.53-2.75,4.8-1.82,1.18,3.27-.2,5.21S329.25,237.62,328,236.68Z" style="fill:#fafafa"></path><path d="M373.86,185.3c4.15,0,9.27,2.8,14.17,5a7.4,7.4,0,0,0,7.22-.64c-1.1,2.34-4.91,3.19-7.64,2.53-3.51-.85-4.47-1.32-6.63-.5C381,191.69,380.19,187.48,373.86,185.3Z" style="fill:#263238"></path><path d="M380,181.47c-3.24-4.38-13.23-12.48-28.79-3.5-18,10.4-23.79,35.24-26.12,50.28-1.3,8.36-1.21,13.72-1.67,17.07a21.36,21.36,0,0,1-1.72,5.51c-1.66,4.69-1.08,7.58,2.84,8s6.71-4.94,12.09-5.59c9.09-1.11,14-1.81,20.94-7.77-4.71,3.37-11.41,5.86-20.3,6.08-5.6.14-8,2.68-9.83,4.14-3.39,2.67-5.79,0-3.83-4.11a22.59,22.59,0,0,0,2-5.92c.67-3.37,1.49-8.12,2.84-13.25,2.2-8.39,9.43-35.34,24.39-44s25.9-3.06,28.72-.38A9.32,9.32,0,0,0,380,181.47Z" style="fill:#263238"></path><path d="M354.34,187.49c10.11-4.31,16.5-4.1,27.13.54,4.14,1.81,12.18.83,16.39-5.71-6.56,4.21-10.33,3.78-21.31-.75C369.55,178.68,359,182.65,354.34,187.49Z" style="fill:#263238"></path><path d="M325.87,243.25c-.2,3.83,1.34,7.5,3,8.62-2.42-.53-3.84-2.19-4.37-5S325.87,243.25,325.87,243.25Z" style="fill:#263238"></path><path d="M382.42,214.4c.17,6.57-3.18,19-14.31,27.59C381,236,384.48,225.24,382.42,214.4Z" style="fill:#f28f8f"></path><path d="M386.41,124c-8.8-4.46-25.25,9.09-37,20.93-9.9,10-11.09,5.32-11-1.46s5.12-12.4,15.87-20.35c16.48-12.19,27.34-9,31.77-6.87A33.49,33.49,0,0,1,386.41,124Z" style="fill:#263238"></path></g><g id="freepik--Nose--inject-115"><path d="M291.5,340.58c1.18,2.78,1.36,9-1.56,12.66s-6.36,10.48-4,17.28,5.15,8.51,5.15,8.51-11.46-2.51-11.49-14.19c0-9.26,6.24-12.55,8.95-15.92A13.45,13.45,0,0,0,291.5,340.58Z" style="fill:#f28f8f"></path><path d="M346.69,373.36c-3.44,5.13-10.32,6.83-20.13,4s-27.38,14.8-39.75-4.23c0-9.52,9.65-13.25,29.42-13.31s23.85-20.57,37.26-26.24,18.23,8.47,13.23,14.19C359.27,356.33,350.13,365.48,346.69,373.36Z" style="fill:#f28f8f"></path><path d="M327.39,289.25c7.92,14.94,19.66,24.5,30.68,34.27,9.5,8.43,9.93,19.23,2.79,28.08s-12.77,14.47-14.41,22.81c5.68-9.74,13.31-15.17,20.27-23.26s8.28-20.79-2.27-29.43C354.17,313.3,340.38,305.23,327.39,289.25Z" style="fill:#263238"></path><path d="M326.54,375c.34-2.94-4.08-7.21-12-5.75-9.5,1.75-14,7-8.54,7.94s13.21-1.43,16.43-4.14C322.44,373,325.29,373,326.54,375Z" style="fill:#263238"></path><path d="M289.94,353.24c-5.86,8.29-3.76,23.26,6.27,27.7C286.83,380.41,276,366.37,289.94,353.24Z" style="fill:#263238"></path><path d="M300.37,377.83a11.58,11.58,0,0,1,2.33,1.64c.69,1.66-3.62.47-4.13.25a15,15,0,0,1-7.27-5.64A10.68,10.68,0,0,1,290,366c.38-1.89,2.5-4.82,3.71-2.95a3.73,3.73,0,0,1,.15,2.24c-.24,2.71-.26,4.68,1.23,7.33A17.6,17.6,0,0,0,300.37,377.83Z" style="fill:#fafafa"></path><path d="M355.82,330.2a13.48,13.48,0,0,1,3.45,8.61,10,10,0,0,1-3.71,8.1,5.26,5.26,0,0,1-3.89,1.2,3.7,3.7,0,0,1-3-2.86,5.54,5.54,0,0,1-.23-1.4c-.16-2.18-.26-4.33-.53-6.5a35.2,35.2,0,0,0-2.73-9.24c-2.59-5.14-5.45-8.81-9-13.33-2.21-2.78-3.36-4-3.31-4.81.07-1.19,1.31-1,1.95-.36q5.63,5.25,11.07,10.69C349.15,323.58,352.89,326.6,355.82,330.2Z" style="fill:#fafafa"></path><path d="M291.05,357.83a2.27,2.27,0,0,0,.11.86,1.9,1.9,0,0,0,1.64,1.16,3.79,3.79,0,0,0,2-.48,5.53,5.53,0,0,0,3-3.35,2,2,0,0,0-.1-1.53c-.75-1.26-3.36-.89-4.51-.36A4.51,4.51,0,0,0,291.05,357.83Z" style="fill:#fafafa"></path></g><g id="freepik--eye--inject-115"><path d="M170.07,212.53c-33,11.18-47.58,50.88-34.42,50.13,12.61-.73,26-20.67,62.46-19,0,0-70.09,34.84-62.46,75.8,0,0-11.9,4.16-19.67-11.35-12-24,.13-56.67,7.63-66.85C145.48,211.56,170.07,212.53,170.07,212.53Z" style="fill:#f28f8f"></path><path d="M206.5,243.25c6.49-2.54,11.08-3.9,13.66-7.93a16.22,16.22,0,0,0-.93,5.9c.11,3.29,26.78,14.51,27.36,47.33C246.59,288.55,240.29,256.59,206.5,243.25Z" style="fill:#f28f8f"></path><path d="M233.12,261.07s-.13-11.33-20.65-15.45S160.18,258.17,146.88,274s-18.22,33.63-11.23,45.41c0,0,25.93-44.45,60.91-58.45C220.74,251.3,233.12,261.07,233.12,261.07Z" style="fill:#0F172A"></path><path d="M174.64,256.78c-14.41,8.71-21.37,19.06-17.33,21.54s18.91-19.7,47.17-24.71c0,0-21.38,11.12-38.4,28.92a360.88,360.88,0,0,0-30.43,36.89s-6.62-7.11,0-27.19S163.55,259.4,174.64,256.78Z" style="opacity:0.2"></path><path d="M141.91,314.65c2.61,6.47,10.11,16.54,29.68,19.85s43.91-3,63-20.41c0,0,6.61-8.52,8.61-9.6,3.6-1.94,6.57-1,9.14-3.05s2.32-5.07,0-6.68-4.09-3.19-6.26-8.64-6.93-24.34-20-27.74-31.66.9-49.1,14.15S141.91,314.65,141.91,314.65Z" style="fill:#f0f0f0"></path><path d="M243.18,304.49c3.6-1.94,6.57-1,9.14-3.05s2.32-5.07,0-6.68-4.09-3.19-6.26-8.64-6.93-24.34-20-27.74-31.66.9-49.1,14.15-35,42.12-35,42.12c2.61,6.47,10.11,16.54,29.68,19.85a64.28,64.28,0,0,0,16.65.52c-9.63.68-21.62-3.64-23.69-9.57-2.17-6.25-3.31-18.24,10.43-31.57s43.23-27,55.33-17,9.94,26.92,4.26,37.24C234.57,314.09,241.18,305.57,243.18,304.49Z" style="fill:#e0e0e0"></path><path d="M246.59,288.55c.52,3.8,1.18,10.45-6.23,17.53a19.39,19.39,0,0,1,6.09-2.72c3-.58,7.65-1.7,7.72-4.64s-1.93-3.8-4-6S246.59,288.55,246.59,288.55Z" style="fill:#f28f8f"></path><path d="M148.26,323.89s8.55,7.33,24.58,9.73a78.22,78.22,0,0,0,29-1.15s-11.09,6-29.58,3.61C153.39,333.62,148.26,323.89,148.26,323.89Z" style="fill:#263238"></path><path d="M132.77,309.74c.83-6.79,1.77-14.27,10.55-25.62a107,107,0,0,1,22.45-21.82c12-8.5,27.52-14.68,37.51-15.38,18.33-1.29,27,7.94,27,7.94s-5.29-9.13-18.64-11c0,0,8.57-4.29,8.49-8.51,0,0-2.32,5.32-22,8.3-26.63,4-52.08,24.28-60.3,40.5S132.77,309.74,132.77,309.74Z" style="fill:#263238"></path><path d="M150,302.39c3.52,14.2,15.6,24.66,30,24.66,17.12,0,31-14.85,31-33.17,0-12.81-6.78-23.92-16.72-29.45C194.24,264.43,165.66,275.91,150,302.39Z" style="fill:#0F172A"></path><path d="M194.24,264.43A105.12,105.12,0,0,0,163.82,285,205.41,205.41,0,0,0,150,302.49a33.12,33.12,0,0,0,13.64,19.58c-1.27-6.7-.24-17,11.32-28.19,7.44-7.22,19.49-14.54,30.91-18.15A32,32,0,0,0,194.24,264.43Z" style="opacity:0.2"></path><path d="M194.08,267.14c8.95,5.47,14.46,15.61,14.46,26.74,0,17-12.82,30.75-28.58,30.75-12.63,0-23.75-8.94-27.36-21.86,13.43-22,36.3-33.29,41.48-35.63m.16-2.71s-28.58,11.48-44.25,38c3.52,14.2,15.6,24.66,30,24.66,17.12,0,31-14.85,31-33.17,0-12.81-6.78-23.92-16.72-29.45Z" style="fill:#263238"></path><ellipse cx="179.96" cy="293.88" rx="15.68" ry="16.78" style="fill:#263238"></ellipse><path d="M153.31,315.09c-.71-2,1.18-4.49,4.23-5.6s6.11-.39,6.83,1.6-1.17,4.49-4.23,5.59S154,317.07,153.31,315.09Z" style="fill:#fafafa"></path><path d="M179.46,291a5.68,5.68,0,1,1-5.68-5.68A5.68,5.68,0,0,1,179.46,291Z" style="fill:#fafafa"></path><path d="M220.17,324.66c15.33-7,19.51-16.64,24.51-19.43s6-1.11,9-3.58a4.68,4.68,0,0,0,.34-6.21c-1.64-2-4.5-3.89-6-7.24-2-4.51-14-53.93-58.29-28.38s-59,62.44-59,62.44,7.55,2.08,14.75-6.43,35.39-44.52,57.55-53.17c20.58-8,25.57-1.54,30.42,2.83s9.21,14.86,13,24.05c1.85,4.56,4.07,5,5.68,6.67s1.71,4.39-2.28,5.6-6.54.58-10.19,5.14A71.29,71.29,0,0,1,220.17,324.66Z" style="fill:#263238"></path><path d="M244.17,284.12c2.53,6.28,2.41,13.17.72,16.23A14.62,14.62,0,0,0,248,291Z" style="fill:#263238"></path><path d="M185.35,273.7c14.21-10.3,30.65-13.36,41-11s24.08,1.24,32.26-8.52c-9.15,5.68-19.18,5.55-35.59,2.28S191,266.24,185.35,273.7Z" style="fill:#263238"></path><path d="M232.29,261c4.68.32,7.75,3.9,12.93,5.32a9.55,9.55,0,0,0,6.7-.39c-1.56,1.89-4.53,2.57-6.75,2.43-3.6-.22-6.74-2.48-9.9-2.84A6.36,6.36,0,0,0,232.29,261Z" style="fill:#263238"></path><path d="M144.6,330.27c5.64,5.4,16.57,10.7,33.36,11.86,11.77.82,23.92-.36,34.51-6.23-2.14,2-16.1,11.32-34.52,10.19C158,344.87,149,336.46,144.6,330.27Z" style="fill:#f28f8f"></path><path d="M251.92,179.46c4.85,1.92,1.72,15.07-8.11,20.75S188.29,205,168.1,213.27s-39.5,22.61-54.79,52.22c5.21-27,24.34-47.83,45.39-61.56s55.61-15.07,70.36-17.91S251.92,179.46,251.92,179.46Z" style="fill:#263238"></path><path d="M253.64,194.53a21.78,21.78,0,0,1-14.75,10.38c-7.47,1.34-.27,2.42,6.46.63s13.21-8.17,13.21-11S256.21,190.34,253.64,194.53Z" style="fill:#fafafa"></path></g></g></g></svg>
